{
    "asset" : {
        "generator" : "Khronos glTF Blender I/O v1.8.19",
        "version" : "2.0"
    },
    "scene" : 0,
    "scenes" : [
        {
            "name" : "Scene",
            "nodes" : [
                0
            ]
        }
    ],
    "nodes" : [
        {
            "mesh" : 0,
            "name" : "\u52a8\u8f6601"
        }
    ],
    "materials" : [
        {
            "doubleSided" : true,
            "name" : "chepi01",
            "pbrMetallicRoughness" : {
                "baseColorFactor" : [
                    0.800000011920929,
                    0.800000011920929,
                    0.800000011920929,
                    1
                ],
                "metallicFactor" : 0,
                "roughnessFactor" : 0.5
            }
        },
        {
            "doubleSided" : true,
            "name" : "chepi02",
            "pbrMetallicRoughness" : {
                "baseColorFactor" : [
                    0.009060608223080635,
                    0.008966612629592419,
                    0.010272680781781673,
                    1
                ],
                "metallicFactor" : 0,
                "roughnessFactor" : 0.5
            }
        },
        {
            "doubleSided" : true,
            "name" : "chepi03",
            "pbrMetallicRoughness" : {
                "baseColorFactor" : [
                    0.058110881596803665,
                    0.058110881596803665,
                    0.058110881596803665,
                    1
                ],
                "metallicFactor" : 0,
                "roughnessFactor" : 0.5
            }
        },
        {
            "doubleSided" : true,
            "name" : "chepi04",
            "pbrMetallicRoughness" : {
                "baseColorFactor" : [
                    0.10223819315433502,
                    0.10223819315433502,
                    0.10223819315433502,
                    1
                ],
                "metallicFactor" : 0,
                "roughnessFactor" : 0.5
            }
        },
        {
            "doubleSided" : true,
            "name" : "chepi05",
            "pbrMetallicRoughness" : {
                "baseColorFactor" : [
                    0.08984090387821198,
                    0.06369535624980927,
                    0.07488897442817688,
                    1
                ],
                "metallicFactor" : 0,
                "roughnessFactor" : 0.5
            }
        },
        {
            "doubleSided" : true,
            "name" : "chepi06",
            "pbrMetallicRoughness" : {
                "baseColorFactor" : [
                    0.011134806089103222,
                    0.011134806089103222,
                    0.011134806089103222,
                    1
                ],
                "metallicFactor" : 0,
                "roughnessFactor" : 0.5
            }
        }
    ],
    "meshes" : [
        {
            "name" : "\u7acb\u65b9\u4f53.009",
            "primitives" : [
                {
                    "attributes" : {
                        "POSITION" : 0,
                        "NORMAL" : 1,
                        "TEXCOORD_0" : 2
                    },
                    "indices" : 3,
                    "material" : 0
                },
                {
                    "attributes" : {
                        "POSITION" : 4,
                        "NORMAL" : 5,
                        "TEXCOORD_0" : 6
                    },
                    "indices" : 7,
                    "material" : 1
                },
                {
                    "attributes" : {
                        "POSITION" : 8,
                        "NORMAL" : 9,
                        "TEXCOORD_0" : 10
                    },
                    "indices" : 11,
                    "material" : 2
                },
                {
                    "attributes" : {
                        "POSITION" : 12,
                        "NORMAL" : 13,
                        "TEXCOORD_0" : 14
                    },
                    "indices" : 15,
                    "material" : 3
                },
                {
                    "attributes" : {
                        "POSITION" : 16,
                        "NORMAL" : 17,
                        "TEXCOORD_0" : 18
                    },
                    "indices" : 19,
                    "material" : 4
                },
                {
                    "attributes" : {
                        "POSITION" : 20,
                        "NORMAL" : 21,
                        "TEXCOORD_0" : 22
                    },
                    "indices" : 23,
                    "material" : 5
                }
            ]
        }
    ],
    "accessors" : [
        {
            "bufferView" : 0,
            "componentType" : 5126,
            "count" : 1803,
            "max" : [
                43.67861557006836,
                3.350292921066284,
                1.3528543710708618
            ],
            "min" : [
                -46.122108459472656,
                0.9957113265991211,
                -1.350357174873352
            ],
            "type" : "VEC3"
        },
        {
            "bufferView" : 1,
            "componentType" : 5126,
            "count" : 1803,
            "type" : "VEC3"
        },
        {
            "bufferView" : 2,
            "componentType" : 5126,
            "count" : 1803,
            "type" : "VEC2"
        },
        {
            "bufferView" : 3,
            "componentType" : 5123,
            "count" : 3714,
            "type" : "SCALAR"
        },
        {
            "bufferView" : 4,
            "componentType" : 5126,
            "count" : 1847,
            "max" : [
                43.76031494140625,
                3.4170546531677246,
                1.3528543710708618
            ],
            "min" : [
                -45.97039794921875,
                0.9957113265991211,
                -1.350357174873352
            ],
            "type" : "VEC3"
        },
        {
            "bufferView" : 5,
            "componentType" : 5126,
            "count" : 1847,
            "type" : "VEC3"
        },
        {
            "bufferView" : 6,
            "componentType" : 5126,
            "count" : 1847,
            "type" : "VEC2"
        },
        {
            "bufferView" : 7,
            "componentType" : 5123,
            "count" : 3666,
            "type" : "SCALAR"
        },
        {
            "bufferView" : 8,
            "componentType" : 5126,
            "count" : 3960,
            "max" : [
                42.79664611816406,
                2.797124147415161,
                1.3585630655288696
            ],
            "min" : [
                -44.16336441040039,
                2.0809595584869385,
                -1.3637768030166626
            ],
            "type" : "VEC3"
        },
        {
            "bufferView" : 9,
            "componentType" : 5126,
            "count" : 3960,
            "type" : "VEC3"
        },
        {
            "bufferView" : 10,
            "componentType" : 5126,
            "count" : 3960,
            "type" : "VEC2"
        },
        {
            "bufferView" : 11,
            "componentType" : 5123,
            "count" : 6816,
            "type" : "SCALAR"
        },
        {
            "bufferView" : 12,
            "componentType" : 5126,
            "count" : 622,
            "max" : [
                42.77983093261719,
                2.9457058906555176,
                1.3585630655288696
            ],
            "min" : [
                -46.122108459472656,
                1.9572248458862305,
                -1.3637768030166626
            ],
            "type" : "VEC3"
        },
        {
            "bufferView" : 13,
            "componentType" : 5126,
            "count" : 622,
            "type" : "VEC3"
        },
        {
            "bufferView" : 14,
            "componentType" : 5126,
            "count" : 622,
            "type" : "VEC2"
        },
        {
            "bufferView" : 15,
            "componentType" : 5123,
            "count" : 942,
            "type" : "SCALAR"
        },
        {
            "bufferView" : 16,
            "componentType" : 5126,
            "count" : 800,
            "max" : [
                39.154624938964844,
                0.9957112073898315,
                1.028295636177063
            ],
            "min" : [
                -39.35918426513672,
                0.41081878542900085,
                -1.0257983207702637
            ],
            "type" : "VEC3"
        },
        {
            "bufferView" : 17,
            "componentType" : 5126,
            "count" : 800,
            "type" : "VEC3"
        },
        {
            "bufferView" : 18,
            "componentType" : 5126,
            "count" : 800,
            "type" : "VEC2"
        },
        {
            "bufferView" : 19,
            "componentType" : 5123,
            "count" : 1350,
            "type" : "SCALAR"
        },
        {
            "bufferView" : 20,
            "componentType" : 5126,
            "count" : 5820,
            "max" : [
                43.34419250488281,
                2.6267151832580566,
                1.2420871257781982
            ],
            "min" : [
                -44.70398712158203,
                0,
                -1.2395901679992676
            ],
            "type" : "VEC3"
        },
        {
            "bufferView" : 21,
            "componentType" : 5126,
            "count" : 5820,
            "type" : "VEC3"
        },
        {
            "bufferView" : 22,
            "componentType" : 5126,
            "count" : 5820,
            "type" : "VEC2"
        },
        {
            "bufferView" : 23,
            "componentType" : 5123,
            "count" : 10128,
            "type" : "SCALAR"
        }
    ],
    "bufferViews" : [
        {
            "buffer" : 0,
            "byteLength" : 21636,
            "byteOffset" : 0
        },
        {
            "buffer" : 0,
            "byteLength" : 21636,
            "byteOffset" : 21636
        },
        {
            "buffer" : 0,
            "byteLength" : 14424,
            "byteOffset" : 43272
        },
        {
            "buffer" : 0,
            "byteLength" : 7428,
            "byteOffset" : 57696
        },
        {
            "buffer" : 0,
            "byteLength" : 22164,
            "byteOffset" : 65124
        },
        {
            "buffer" : 0,
            "byteLength" : 22164,
            "byteOffset" : 87288
        },
        {
            "buffer" : 0,
            "byteLength" : 14776,
            "byteOffset" : 109452
        },
        {
            "buffer" : 0,
            "byteLength" : 7332,
            "byteOffset" : 124228
        },
        {
            "buffer" : 0,
            "byteLength" : 47520,
            "byteOffset" : 131560
        },
        {
            "buffer" : 0,
            "byteLength" : 47520,
            "byteOffset" : 179080
        },
        {
            "buffer" : 0,
            "byteLength" : 31680,
            "byteOffset" : 226600
        },
        {
            "buffer" : 0,
            "byteLength" : 13632,
            "byteOffset" : 258280
        },
        {
            "buffer" : 0,
            "byteLength" : 7464,
            "byteOffset" : 271912
        },
        {
            "buffer" : 0,
            "byteLength" : 7464,
            "byteOffset" : 279376
        },
        {
            "buffer" : 0,
            "byteLength" : 4976,
            "byteOffset" : 286840
        },
        {
            "buffer" : 0,
            "byteLength" : 1884,
            "byteOffset" : 291816
        },
        {
            "buffer" : 0,
            "byteLength" : 9600,
            "byteOffset" : 293700
        },
        {
            "buffer" : 0,
            "byteLength" : 9600,
            "byteOffset" : 303300
        },
        {
            "buffer" : 0,
            "byteLength" : 6400,
            "byteOffset" : 312900
        },
        {
            "buffer" : 0,
            "byteLength" : 2700,
            "byteOffset" : 319300
        },
        {
            "buffer" : 0,
            "byteLength" : 69840,
            "byteOffset" : 322000
        },
        {
            "buffer" : 0,
            "byteLength" : 69840,
            "byteOffset" : 391840
        },
        {
            "buffer" : 0,
            "byteLength" : 46560,
            "byteOffset" : 461680
        },
        {
            "buffer" : 0,
            "byteLength" : 20256,
            "byteOffset" : 508240
        }
    ],
    "buffers" : [
        {
            "byteLength" : 528496,
            "uri" : "data:application/octet-stream;base64,"
        }
    ]
}
